<?xml version="1.0" encoding="UTF-8"?>
<!DOCTYPE svg PUBLIC "-//W3C//DTD SVG 1.1//EN" "http://www.w3.org/Graphics/SVG/1.1/DTD/svg11.dtd">
<svg xmlns="http://www.w3.org/2000/svg" version="1.1" width="500px" height="500px" style="shape-rendering:geometricPrecision; text-rendering:geometricPrecision; image-rendering:optimizeQuality; fill-rule:evenodd; clip-rule:evenodd" xmlns:xlink="http://www.w3.org/1999/xlink">
<g><path style="opacity:0.999" fill="#2d3653" d="M 290.5,116.5 C 290.5,114.5 290.5,112.5 290.5,110.5C 292.026,108.87 294.026,108.037 296.5,108C 317.333,104.833 338.167,101.667 359,98.5C 361.034,98.3536 362.701,99.0203 364,100.5C 379.426,196.382 393.759,292.382 407,388.5C 405.174,390.074 403.007,390.907 400.5,391C 379.85,394.275 359.183,397.442 338.5,400.5C 336.307,400.674 334.473,400.007 333,398.5C 318.412,304.551 304.245,210.551 290.5,116.5 Z"/></g>
<g><path style="opacity:1" fill="#2c3553" d="M 92.5,101.5 C 126.502,101.333 160.502,101.5 194.5,102C 195,102.5 195.5,103 196,103.5C 196.831,200.874 196.664,298.207 195.5,395.5C 178.167,395.833 160.833,396.167 143.5,396.5C 125.781,396.493 108.281,395.826 91,394.5C 90.3333,297.5 90.3333,200.5 91,103.5C 91.7172,102.956 92.2172,102.289 92.5,101.5 Z"/></g>
<g><path style="opacity:0.999" fill="#2c3552" d="M 288.5,103.5 C 288.5,200.5 288.5,297.5 288.5,394.5C 288.389,395.117 288.056,395.617 287.5,396C 258.261,396.828 229.095,396.662 200,395.5C 198.838,346.749 198.338,297.915 198.5,249C 198.338,200.085 198.838,151.251 200,102.5C 229.095,101.338 258.261,101.172 287.5,102C 288.056,102.383 288.389,102.883 288.5,103.5 Z"/></g>
<g><path style="opacity:0.404" fill="#a5a9b6" d="M 288.5,103.5 C 289.167,105.833 289.833,108.167 290.5,110.5C 290.5,112.5 290.5,114.5 290.5,116.5C 289.833,209.167 289.167,301.833 288.5,394.5C 288.5,297.5 288.5,200.5 288.5,103.5 Z"/></g>
</svg>
